<svg xmlns="http://www.w3.org/2000/svg" viewBox="0 0 32 32" width="32" height="32">
  <!-- Plant pot -->
  <rect x="8" y="20" width="16" height="8" rx="2" fill="#8B4513" stroke="#654321" stroke-width="1"/>
  
  <!-- Soil -->
  <ellipse cx="16" cy="22" rx="6" ry="2" fill="#654321"/>
  
  <!-- Plant stem -->
  <path d="M16 22 Q16 18 16 14" stroke="#228B22" stroke-width="2" fill="none" stroke-linecap="round"/>
  
  <!-- Leaves -->
  <ellipse cx="14" cy="16" rx="3" ry="1.5" fill="#32CD32" transform="rotate(-15 14 16)"/>
  <ellipse cx="18" cy="18" rx="3" ry="1.5" fill="#32CD32" transform="rotate(15 18 18)"/>
  <ellipse cx="12" cy="18" rx="2.5" ry="1.2" fill="#228B22" transform="rotate(-25 12 18)"/>
  <ellipse cx="20" cy="16" rx="2.5" ry="1.2" fill="#228B22" transform="rotate(25 20 16)"/>
  
  <!-- Small leaves -->
  <ellipse cx="15" cy="14" rx="2" ry="1" fill="#90EE90" transform="rotate(-10 15 14)"/>
  <ellipse cx="17" cy="14" rx="2" ry="1" fill="#90EE90" transform="rotate(10 17 14)"/>
  
  <!-- Water drops -->
  <ellipse cx="13" y="12" rx="1" ry="1.5" fill="#87CEEB" opacity="0.8"/>
  <ellipse cx="19" y="11" rx="0.8" ry="1.2" fill="#87CEEB" opacity="0.6"/>
</svg>
